<svg xmlns="http://www.w3.org/2000/svg" width="980" height="360"><path fill="#FC60A8" d="M0 .6h980v360H0z"/><path fill="#3F3D56" d="M745.8 176.59c-3.28.05-5.9 2.76-5.85 6.04.05 3.21 2.64 5.8 5.85 5.85h149.09c3.28.05 5.99-2.56 6.04-5.85a5.944 5.944 0 00-5.85-6.04H745.8z"/><path fill="#FFF" d="M928.69 174.94c-.46.46-.46 1.2 0 1.65l5.02 5.02h-12.39c-.65 0-1.17.52-1.17 1.17 0 .65.52 1.17 1.17 1.17h12.39l-5.02 5.02c-.46.46-.46 1.2 0 1.65.46.46 1.2.46 1.65 0l7.02-7.02c.46-.46.46-1.2 0-1.65l-7.02-7.02c-.45-.45-1.19-.45-1.65.01zM711.93 174.94c.46.46.46 1.2 0 1.65l-5.02 5.02h12.39c.65 0 1.17.52 1.17 1.17s-.52 1.17-1.17 1.17h-12.4l5.02 5.02c.46.46.46 1.2 0 1.65-.46.46-1.2.46-1.65 0l-7.02-7.02c-.46-.46-.46-1.2 0-1.65l7.02-7.02c.46-.45 1.2-.45 1.66.01z"/><g opacity=".4" fill="#FFF"><circle cx="751.82" cy="46.79" r="6.39"/><circle cx="778.44" cy="46.79" r="6.39"/><circle cx="805.07" cy="46.79" r="6.39"/><circle cx="831.69" cy="46.79" r="6.39"/><circle cx="858.32" cy="46.79" r="6.39"/><circle cx="884.94" cy="46.79" r="6.39"/><circle cx="911.57" cy="46.79" r="6.39"/><circle cx="751.82" cy="67.03" r="6.39"/><circle cx="778.44" cy="67.03" r="6.39"/><circle cx="805.07" cy="67.03" r="6.39"/><circle cx="831.69" cy="67.03" r="6.39"/><circle cx="858.32" cy="67.03" r="6.39"/><circle cx="884.94" cy="67.03" r="6.39"/><circle cx="911.57" cy="67.03" r="6.39"/><circle cx="751.82" cy="87.26" r="6.39"/><circle cx="778.44" cy="87.26" r="6.39"/><circle cx="805.07" cy="87.26" r="6.39"/><circle cx="831.69" cy="87.26" r="6.39"/><circle cx="858.32" cy="87.26" r="6.39"/><circle cx="884.94" cy="87.26" r="6.39"/><circle cx="911.57" cy="87.26" r="6.39"/><circle cx="751.82" cy="107.5" r="6.39"/><circle cx="778.44" cy="107.5" r="6.39"/><circle cx="751.82" cy="127.73" r="6.39"/><circle cx="778.44" cy="127.73" r="6.39"/><circle cx="805.07" cy="127.73" r="6.39"/><circle cx="805.07" cy="107.5" r="6.39"/><circle cx="831.69" cy="107.5" r="6.39"/><circle cx="858.32" cy="107.5" r="6.39"/><circle cx="884.94" cy="107.5" r="6.39"/><circle cx="911.57" cy="107.5" r="6.39"/></g><path fill="#3F3D56" d="M679.25 326.03c-19.48 0-35.27-15.79-35.27-35.27s15.79-35.27 35.27-35.27 35.27 15.79 35.27 35.27c-.02 19.47-15.8 35.24-35.27 35.27zm0-68.55c-18.38 0-33.27 14.9-33.27 33.27s14.9 33.27 33.27 33.27 33.27-14.9 33.27-33.27c-.01-18.36-14.9-33.25-33.27-33.27z"/><path fill="#FFF" d="M692.78 288.37h-10.14v-10.14a3.37 3.37 0 00-3.39-3.37c-1.86 0-3.37 1.51-3.37 3.37v10.14h-10.14c-1.87 0-3.38 1.51-3.38 3.38 0 1.87 1.51 3.38 3.38 3.38h10.14v10.14a3.37 3.37 0 003.39 3.37c1.86 0 3.37-1.51 3.37-3.37v-10.14h10.14c1.87 0 3.38-1.51 3.38-3.38 0-1.86-1.52-3.38-3.38-3.38z"/><g opacity=".4" fill="#FFF"><circle cx="54.02" cy="301.16" r="5.02"/><circle cx="54.02" cy="280.23" r="5.02"/><circle cx="54.02" cy="259.3" r="5.02"/><circle cx="54.02" cy="238.36" r="5.02"/><circle cx="54.02" cy="217.43" r="5.02"/><circle cx="54.02" cy="196.5" r="5.02"/><circle cx="54.02" cy="175.57" r="5.02"/><circle cx="69.93" cy="301.16" r="5.02"/><circle cx="69.93" cy="280.23" r="5.02"/><circle cx="69.93" cy="259.3" r="5.02"/><circle cx="69.93" cy="238.36" r="5.02"/><circle cx="69.93" cy="217.43" r="5.02"/><circle cx="69.93" cy="196.5" r="5.02"/><circle cx="69.93" cy="175.57" r="5.02"/><circle cx="85.84" cy="301.16" r="5.02"/><circle cx="85.84" cy="280.23" r="5.02"/><circle cx="85.84" cy="259.3" r="5.02"/><circle cx="85.84" cy="238.36" r="5.02"/><circle cx="85.84" cy="217.43" r="5.02"/><circle cx="85.84" cy="196.5" r="5.02"/><circle cx="85.84" cy="175.57" r="5.02"/><circle cx="101.75" cy="301.16" r="5.02"/><circle cx="101.75" cy="280.23" r="5.02"/><circle cx="117.66" cy="301.16" r="5.02"/><circle cx="117.66" cy="280.23" r="5.02"/><circle cx="117.66" cy="259.3" r="5.02"/><circle cx="101.75" cy="259.3" r="5.02"/><circle cx="101.75" cy="238.36" r="5.02"/><circle cx="101.75" cy="217.43" r="5.02"/><circle cx="101.75" cy="196.5" r="5.02"/><circle cx="101.75" cy="175.57" r="5.02"/></g><path fill="#3F3D56" d="M497.41 29.4H163.67c-3.41 0-6.18 2.77-6.18 6.18v285.38c0 3.41 2.77 6.18 6.18 6.18h333.74c3.41 0 6.18-2.77 6.18-6.18V35.59c0-3.42-2.77-6.18-6.18-6.19zm3.7 291.57c0 2.05-1.66 3.71-3.7 3.72H163.67c-2.05 0-3.71-1.67-3.7-3.72V35.59c0-2.05 1.66-3.71 3.7-3.72h333.74c2.05.01 3.7 1.67 3.7 3.72v285.38z"/><path fill="#FFF" d="M240.7 276.41c0 .44-.01.88-.03 1.31-.73 13.88-12.57 24.55-26.45 23.83-12.87-.67-23.15-10.96-23.83-23.83-.02-.43-.03-.87-.03-1.31 0-13.9 11.27-25.18 25.18-25.18s25.16 11.27 25.16 25.18z"/><path fill="#3F3D56" d="M471.47 259.62H273.66a4.206 4.206 0 00-4.19 4.21 4.208 4.208 0 004.19 4.19h197.81a4.206 4.206 0 004.19-4.21c0-2.31-1.88-4.18-4.19-4.19z"/><path fill="#FFF" d="M358.78 284.8h-85.12c-2.31 0-4.19 1.88-4.18 4.2 0 2.31 1.87 4.18 4.18 4.18h85.12c2.31 0 4.19-1.87 4.2-4.18 0-2.31-1.87-4.19-4.18-4.2h-.02zM576.7 229.98H242.96a8.565 8.565 0 01-8.55-8.55V74.97a8.565 8.565 0 018.55-8.55H576.7c4.72.01 8.54 3.83 8.55 8.55v146.46c-.01 4.72-3.83 8.55-8.55 8.55zM242.96 69.42c-3.06 0-5.55 2.49-5.55 5.55v146.46c0 3.06 2.49 5.55 5.55 5.55H576.7c3.06 0 5.55-2.49 5.55-5.55V74.97c0-3.06-2.49-5.55-5.55-5.55H242.96z"/><path fill="#FFF" d="M310.92 119.84c-2.32 0-4.2 1.87-4.2 4.19 0 2.32 1.87 4.2 4.19 4.2h197.82c2.32 0 4.2-1.87 4.2-4.19 0-2.32-1.87-4.2-4.19-4.2H310.92zM310.92 144.15a4.2 4.2 0 100 8.4h197.81a4.2 4.2 0 100-8.4H310.92zM310.92 168.17c-2.32 0-4.19 1.88-4.19 4.2 0 2.31 1.88 4.19 4.19 4.19h85.12a4.2 4.2 0 100-8.4l-85.12.01zM648.94 251.48l-33.52-47.31 10.85 2.26c.81.17 1.61-.35 1.78-1.16.17-.81-.35-1.61-1.16-1.78l-16.17-3.37-2.18 16.37c-.11.82.47 1.58 1.29 1.69s1.58-.47 1.69-1.29l1.46-10.99 33.52 47.31c.48.68 1.42.84 2.09.36s.83-1.42.35-2.09z"/><path fill="#3F3D56" d="M764.02 206.16h105.89a4.41 4.41 0 014.41 4.41v110.28a4.41 4.41 0 01-4.41 4.41H764.02a4.41 4.41 0 01-4.41-4.41V210.57a4.417 4.417 0 014.41-4.41zm105.9 117.34c1.46 0 2.65-1.19 2.65-2.65V210.57c0-1.46-1.19-2.65-2.65-2.65h-105.9c-1.46 0-2.65 1.19-2.65 2.65v110.28c0 1.46 1.19 2.65 2.65 2.65h105.9z"/><path fill="#FFF" d="M847.35 302.52c1.65 0 3-1.34 3-3s-1.34-3-3-3h-60.77c-1.65 0-3 1.34-3 3s1.34 3 3 3h60.77zM847.35 284.87a3 3 0 003-2.99 3 3 0 00-2.99-3h-60.78a3 3 0 00-3 2.99 3 3 0 002.99 3h60.78zM816.97 228.9c10.41 0 18.86 8.44 18.86 18.86 0 10.41-8.44 18.86-18.86 18.86-10.41 0-18.86-8.44-18.86-18.86.02-10.41 8.45-18.85 18.86-18.86z"/></svg>